<?xml version='1.0' encoding='utf-8'?>
<svg xmlns="http://www.w3.org/2000/svg" clip-rule="evenodd" fill-rule="evenodd" image-rendering="optimizeQuality" shape-rendering="geometricPrecision" text-rendering="geometricPrecision" version="1.1" viewBox="0 0 9144 9144"> <defs> <style type="text/css">.fil2 {fill:#179BD7} .fil0 {fill:white} .fil1 {fill:#253B80;fill-rule:nonzero}</style> </defs> <polygon class="fil0" points="0 0 9144 0 9144 9144 0 9144"/> <path class="fil1" d="m3867 2625h-454l-481 3425h728l176-1256c6-42 42-72 84-72v-1h865c290 0 552-117 742-307 189-189 307-451 307-741s-118-552-307-741c-190-190-452-307-742-307h-918zm-53 3536c-3 20-6 40-9 59h-970v-1h-12c-46-7-78-50-72-96l504-3589c3-44 40-79 85-79h1445c337 0 641 137 862 357 220 220 356 525 356 861 0 42-2 83-6 124-7 66-19 130-35 192-56 209-167 396-316 545-220 220-525 357-861 357h-792l-175 1250c-1 7-2 14-4 20zm2183-2364c2 2 4 3 6 5l-6-5z"/> <path class="fil2" d="m5997 3797c-7 66-19 130-35 192 73 68 133 150 178 240 54 110 85 233 85 364 0 232-97 442-253 594s-372 246-612 246h-745v1c-41-1-77 30-83 72l-146 1013h-631c13-71 31-176 50-299h-171c-33 213-65 367-65 367-9 46 21 91 67 100 5 1 11 2 16 2h807c44 0 81-35 84-78l145-1008h672c285 0 543-113 730-295 188-183 304-436 304-715 0-157-37-306-103-439-68-138-167-258-288-352l-6-5z"/> </svg>